<svg width="512" height="512" viewBox="0 0 512 512" fill="none" xmlns="http://www.w3.org/2000/svg">
<rect width="512" height="512" fill="#FF6600"/>
<path d="M80.462 343V162.52H113.23V237.784H206.158V162.52H238.926V343H206.158V265.176H113.23V343H80.462ZM278.462 343V162.52H303.038L400.062 288.472V162.52H430.526V343H406.206L308.926 216.536V343H278.462Z" fill="white"/>
<path d="M221.638 427V381.88H249.414V385.272H225.478V402.424H248.07V405.816H225.478V423.608H249.414V427H221.638ZM277.079 427.512C272.77 427.512 269.079 426.595 266.007 424.76C262.935 422.883 260.567 420.216 258.903 416.76C257.282 413.304 256.471 409.187 256.471 404.408C256.471 399.672 257.282 395.576 258.903 392.12C260.567 388.664 262.935 386.019 266.007 384.184C269.079 382.307 272.77 381.368 277.079 381.368C280.194 381.368 283.052 381.88 285.655 382.904C288.3 383.885 290.54 385.336 292.375 387.256L290.647 390.52C288.642 388.557 286.551 387.149 284.375 386.296C282.242 385.443 279.831 385.016 277.143 385.016C271.852 385.016 267.778 386.723 264.919 390.136C262.103 393.507 260.695 398.264 260.695 404.408C260.695 410.595 262.103 415.395 264.919 418.808C267.778 422.179 271.852 423.864 277.143 423.864C279.831 423.864 282.242 423.437 284.375 422.584C286.551 421.731 288.642 420.323 290.647 418.36L292.375 421.624C290.54 423.544 288.3 425.016 285.655 426.04C283.052 427.021 280.194 427.512 277.079 427.512Z" fill="white"/>
</svg>
